<?xml version="1.0" encoding="UTF-8"?>
<svg xmlns="http://www.w3.org/2000/svg" viewBox="0 0 24 24" fill="none" stroke-linecap="round" stroke-linejoin="round" width="24" height="24" stroke="#D4AF37" stroke-width="2" role="img">
  <g stroke="#D4AF37"><path d="M12 15.5A3.5 3.5 0 1 0 12 8a3.5 3.5 0 0 0 0 7.5z"/><path d="M19.4 15a1.8 1.8 0 0 0 .36 2l.05.05a2.1 2.1 0 0 1-3 3l-.05-.05a1.8 1.8 0 0 0-2-.36 1.8 1.8 0 0 0-1 1.64V21a2.1 2.1 0 0 1-4.2 0v-.08a1.8 1.8 0 0 0-1-1.64 1.8 1.8 0 0 0-2 .36l-.05.05a2.1 2.1 0 0 1-3-3l.05-.05a1.8 1.8 0 0 0 .36-2 1.8 1.8 0 0 0-1.64-1H3a2.1 2.1 0 0 1 0-4.2h.08a1.8 1.8 0 0 0 1.64-1 1.8 1.8 0 0 0-.36-2l-.05-.05a2.1 2.1 0 0 1 3-3l.05.05a1.8 1.8 0 0 0 2 .36 1.8 1.8 0 0 0 1-1.64V3a2.1 2.1 0 0 1 4.2 0v.08a1.8 1.8 0 0 0 1 1.64 1.8 1.8 0 0 0 2-.36l.05-.05a2.1 2.1 0 0 1 3 3l-.05.05a1.8 1.8 0 0 0-.36 2 1.8 1.8 0 0 0 1.64 1H21a2.1 2.1 0 0 1 0 4.2h-.08a1.8 1.8 0 0 0-1.52.44z"/></g>
</svg>
