<?xml version="1.0" encoding="UTF-8"?>
<svg xmlns="http://www.w3.org/2000/svg" viewBox="0 0 64 64" fill="none" stroke-linecap="round" stroke-linejoin="round" role="img" aria-label="BarberFlow favicon">
  <rect width="64" height="64" rx="16" fill="#0F1115"/>
  <path d="M22 12v40M22 13h14c9 0 15 5 15 12 0 5-3 9-8 11 6 2 10 7 10 14 0 8-7 14-17 14H22" stroke="#D4AF37" stroke-width="5.6"/>
  <path d="M25 18h11c5 0 8 3 8 7s-3 7-8 7H25M25 38h13c5 0 8 3 8 7s-3 7-8 7H25" stroke="#F8F9FA" stroke-width="1.8"/>
  <path d="M28 19v15M28 22l6 3M28 27l6 3" stroke="#D4AF37" stroke-width="1.8"/>
</svg>
